<svg width="22" height="16" viewBox="0 0 22 16" fill="none" xmlns="http://www.w3.org/2000/svg">
<path d="M18.1289 1.58559C16.7952 0.973384 15.3877 0.536825 13.9416 0.286844C13.9285 0.284393 13.9149 0.286148 13.9028 0.291857C13.8908 0.297566 13.8808 0.30694 13.8743 0.318644C13.6935 0.64033 13.4932 1.0599 13.3529 1.38964C11.7718 1.1529 10.1987 1.1529 8.64997 1.38964C8.50974 1.05253 8.30214 0.64033 8.12051 0.318644C8.11378 0.307207 8.10376 0.298062 8.09176 0.292405C8.07976 0.286747 8.06633 0.28484 8.05323 0.28693C6.60704 0.53633 5.19945 0.972851 3.86591 1.5855C3.8545 1.59038 3.84489 1.59867 3.8384 1.60924C1.17148 5.59359 0.440854 9.47996 0.799311 13.3182C0.800325 13.3276 0.803214 13.3367 0.807808 13.3449C0.812401 13.3532 0.818606 13.3604 0.826054 13.3662C2.5856 14.6585 4.29003 15.4429 5.96283 15.9629C5.97583 15.9668 5.98972 15.9666 6.00261 15.9623C6.01551 15.9581 6.02681 15.95 6.035 15.9392C6.43065 15.3989 6.78337 14.829 7.08585 14.2299C7.09001 14.2217 7.09238 14.2127 7.09282 14.2035C7.09325 14.1943 7.09173 14.1852 7.08836 14.1766C7.085 14.168 7.07985 14.1603 7.07327 14.1539C7.0667 14.1474 7.05883 14.1425 7.0502 14.1393C6.49065 13.9271 5.95794 13.6683 5.44545 13.3745C5.43611 13.369 5.42826 13.3613 5.4226 13.352C5.41694 13.3428 5.41364 13.3323 5.41299 13.3215C5.41235 13.3107 5.41438 13.2999 5.4189 13.29C5.42343 13.2802 5.43031 13.2716 5.43894 13.265C5.54677 13.1842 5.65468 13.1002 5.75763 13.0152C5.76678 13.0077 5.77785 13.0029 5.7896 13.0013C5.80135 12.9997 5.81331 13.0014 5.82414 13.0062C9.19083 14.5434 12.8356 14.5434 16.1625 13.0062C16.1733 13.0011 16.1854 12.9991 16.1973 13.0006C16.2092 13.002 16.2205 13.0068 16.2298 13.0144C16.3328 13.0992 16.4406 13.1842 16.5493 13.265C16.558 13.2715 16.5649 13.28 16.5695 13.2898C16.5741 13.2996 16.5762 13.3104 16.5756 13.3212C16.575 13.332 16.5718 13.3425 16.5663 13.3518C16.5607 13.3611 16.5529 13.3688 16.5437 13.3744C16.031 13.6738 15.4939 13.9294 14.9382 14.1384C14.9296 14.1417 14.9218 14.1468 14.9152 14.1534C14.9087 14.1599 14.9036 14.1677 14.9003 14.1764C14.897 14.185 14.8956 14.1942 14.8961 14.2035C14.8966 14.2127 14.8991 14.2217 14.9033 14.2299C15.2123 14.8282 15.565 15.398 15.9533 15.9384C15.9613 15.9495 15.9725 15.9579 15.9855 15.9623C15.9984 15.9667 16.0124 15.9669 16.0255 15.9629C17.7064 15.4428 19.4108 14.6584 21.1703 13.3662C21.1779 13.3607 21.1842 13.3536 21.1889 13.3455C21.1935 13.3373 21.1963 13.3283 21.1972 13.3189C21.6261 8.8815 20.4787 5.02702 18.1556 1.61002C18.1499 1.59891 18.1404 1.5903 18.1289 1.58559ZM7.58857 10.9811C6.575 10.9811 5.7398 10.0505 5.7398 8.90764C5.7398 7.7649 6.5588 6.8343 7.58865 6.8343C8.62648 6.8343 9.45354 7.77304 9.43734 8.90773C9.43734 10.0505 8.61834 10.9811 7.58857 10.9811ZM14.4241 10.9811C13.4105 10.9811 12.5753 10.0505 12.5753 8.90764C12.5753 7.7649 13.3943 6.8343 14.4241 6.8343C15.4619 6.8343 16.289 7.77304 16.2728 8.90773C16.2728 10.0505 15.4619 10.9811 14.4241 10.9811Z" fill="white"/>
</svg>
