<svg width="22" height="22" viewBox="0 0 22 22" fill="none" xmlns="http://www.w3.org/2000/svg">
<path d="M6.74007 0.786248C5.64567 0.837848 4.89833 1.01253 4.24493 1.26916C3.56881 1.53273 2.99564 1.8863 2.42539 2.45862C1.85521 3.03093 1.50396 3.60445 1.24236 4.28176C0.989157 4.93645 0.817557 5.68448 0.769214 6.77948C0.720871 7.87448 0.710157 8.22651 0.715557 11.0198C0.720871 13.8128 0.733214 14.163 0.786271 15.2603C0.838557 16.3544 1.01256 17.1016 1.26927 17.7552C1.53327 18.4314 1.88641 19.0043 2.45899 19.5747C3.03147 20.1452 3.60456 20.4956 4.28341 20.7576C4.93759 21.0104 5.68579 21.1828 6.78061 21.2307C7.87544 21.2787 8.22781 21.2899 11.0202 21.2845C13.8126 21.2792 14.1642 21.2667 15.2612 21.2147C16.3583 21.1627 17.1015 20.9874 17.7553 20.7319C18.4315 20.4674 19.0048 20.1147 19.5748 19.5421C20.1448 18.9693 20.4958 18.3954 20.7573 17.7177C21.0107 17.0636 21.1829 16.3154 21.2304 15.2214C21.2784 14.1235 21.2897 13.773 21.2844 10.9802C21.279 8.18742 21.2664 7.83728 21.2144 6.74039C21.1624 5.6435 20.9881 4.89865 20.7316 4.24465C20.4672 3.56845 20.1144 2.99596 19.5422 2.4251C18.9699 1.85425 18.3954 1.5035 17.7181 1.24268C17.0634 0.989391 16.3157 0.816848 15.2209 0.769534C14.1261 0.722219 13.7737 0.709962 10.9803 0.715448C8.18684 0.720762 7.83713 0.732762 6.74007 0.786248ZM6.86024 19.3803C5.85739 19.3367 5.31284 19.1701 4.94993 19.0306C4.46941 18.8455 4.12707 18.6217 3.76544 18.2635C3.40373 17.9054 3.18164 17.5618 2.99401 17.0823C2.8531 16.7194 2.68339 16.1755 2.6365 15.1726C2.5855 14.0888 2.57479 13.7633 2.56879 11.0172C2.56279 8.27116 2.57333 7.94605 2.62081 6.86176C2.66367 5.85976 2.83133 5.31462 2.97053 4.95188C3.15567 4.47076 3.3787 4.12902 3.73767 3.76765C4.09664 3.40619 4.43916 3.18359 4.91907 2.99596C5.28164 2.85445 5.8255 2.68619 6.82793 2.63845C7.91264 2.58702 8.23767 2.57673 10.9834 2.57073C13.729 2.56473 14.0549 2.57502 15.1401 2.62285C16.1421 2.66639 16.6875 2.83242 17.0498 2.97256C17.5305 3.1577 17.8726 3.38005 18.234 3.7397C18.5955 4.09919 18.8182 4.44051 19.0059 4.92145C19.1476 5.28291 19.3159 5.82659 19.3632 6.8297C19.4148 7.91442 19.4266 8.23971 19.4314 10.9851C19.4364 13.7306 19.4267 14.0566 19.3792 15.1406C19.3354 16.1434 19.1692 16.6881 19.0294 17.0515C18.8443 17.5318 18.6212 17.8743 18.262 18.2355C17.9028 18.5968 17.5607 18.8193 17.0806 19.007C16.7185 19.1483 16.174 19.317 15.1724 19.3647C14.0876 19.4157 13.7626 19.4264 11.0158 19.4324C8.26913 19.4384 7.94496 19.4273 6.86024 19.3803ZM15.2454 5.50259C15.2458 5.74673 15.3186 5.98527 15.4546 6.18803C15.5906 6.39079 15.7837 6.54867 16.0094 6.6417C16.2351 6.73473 16.4833 6.75872 16.7227 6.71066C16.9621 6.66259 17.1818 6.54462 17.3541 6.37166C17.5264 6.19871 17.6436 5.97854 17.6907 5.739C17.7379 5.49945 17.713 5.25131 17.6191 5.02593C17.5252 4.80056 17.3666 4.60809 17.1633 4.47287C16.9601 4.33764 16.7213 4.26574 16.4771 4.26625C16.1499 4.26693 15.8363 4.39755 15.6053 4.6294C15.3743 4.86124 15.2449 5.17533 15.2454 5.50259ZM5.7187 11.0102C5.72444 13.9273 8.0935 16.2866 11.0098 16.2811C13.9264 16.2755 16.2873 13.9067 16.2818 10.9897C16.2762 8.07265 13.9066 5.71268 10.9898 5.71842C8.07293 5.72416 5.71321 8.09356 5.7187 11.0102ZM7.57141 11.0066C7.57008 10.3285 7.76985 9.66519 8.14547 9.10062C8.52108 8.53606 9.05568 8.09555 9.68165 7.83482C10.3076 7.57408 10.9969 7.50481 11.6622 7.63579C12.3275 7.76676 12.9391 8.09208 13.4195 8.57062C13.9 9.04916 14.2277 9.65941 14.3613 10.3242C14.4949 10.989 14.4284 11.6785 14.1702 12.3055C13.9119 12.9325 13.4736 13.4689 12.9105 13.8467C12.3474 14.2246 11.6849 14.427 11.0068 14.4284C10.5566 14.4293 10.1105 14.3415 9.69419 14.1701C9.27785 13.9986 8.89935 13.7468 8.58034 13.4291C8.26132 13.1113 8.00802 12.7338 7.8349 12.3182C7.66179 11.9025 7.57226 11.4568 7.57141 11.0066Z" fill="white"/>
</svg>
