<svg width="91" height="36" viewBox="0 0 91 36" fill="none" xmlns="http://www.w3.org/2000/svg">
<circle cx="10" cy="18" r="10" fill="white"/>
<path d="M29.6435 27.5V8.59091H33.6413V24.2038H41.7479V27.5H29.6435ZM50.4692 27.777C49.035 27.777 47.7947 27.4723 46.7483 26.8629C45.7081 26.2474 44.9048 25.3918 44.3385 24.2962C43.7723 23.1944 43.4891 21.9171 43.4891 20.4645C43.4891 18.9995 43.7723 17.7192 44.3385 16.6236C44.9048 15.5218 45.7081 14.6662 46.7483 14.0568C47.7947 13.4413 49.035 13.1335 50.4692 13.1335C51.9034 13.1335 53.1406 13.4413 54.1809 14.0568C55.2273 14.6662 56.0336 15.5218 56.5999 16.6236C57.1662 17.7192 57.4493 18.9995 57.4493 20.4645C57.4493 21.9171 57.1662 23.1944 56.5999 24.2962C56.0336 25.3918 55.2273 26.2474 54.1809 26.8629C53.1406 27.4723 51.9034 27.777 50.4692 27.777ZM50.4877 24.7301C51.1402 24.7301 51.6849 24.5455 52.1219 24.1761C52.559 23.8007 52.8883 23.2898 53.1099 22.6435C53.3376 21.9972 53.4515 21.2616 53.4515 20.4368C53.4515 19.612 53.3376 18.8764 53.1099 18.2301C52.8883 17.5838 52.559 17.0729 52.1219 16.6974C51.6849 16.322 51.1402 16.1342 50.4877 16.1342C49.8291 16.1342 49.2751 16.322 48.8258 16.6974C48.3826 17.0729 48.0471 17.5838 47.8194 18.2301C47.5978 18.8764 47.487 19.612 47.487 20.4368C47.487 21.2616 47.5978 21.9972 47.8194 22.6435C48.0471 23.2898 48.3826 23.8007 48.8258 24.1761C49.2751 24.5455 49.8291 24.7301 50.4877 24.7301ZM66.1361 33.1136C64.8619 33.1136 63.7694 32.9382 62.8584 32.5874C61.9535 32.2427 61.2334 31.7718 60.6979 31.1747C60.1624 30.5777 59.8146 29.9067 59.6545 29.1619L63.2923 28.6726C63.4031 28.9557 63.5785 29.2204 63.8186 29.4666C64.0587 29.7128 64.3757 29.9098 64.7696 30.0575C65.1697 30.2114 65.656 30.2884 66.2284 30.2884C67.084 30.2884 67.7888 30.0791 68.3427 29.6605C68.9029 29.2481 69.1829 28.5556 69.1829 27.5831V24.9886H69.0168C68.8444 25.3826 68.5859 25.755 68.2412 26.1058C67.8965 26.4567 67.4533 26.7429 66.9116 26.9645C66.37 27.1861 65.7237 27.2969 64.9727 27.2969C63.9079 27.2969 62.9384 27.0507 62.0643 26.5582C61.1964 26.0597 60.504 25.2995 59.9869 24.2777C59.476 23.2498 59.2206 21.951 59.2206 20.3814C59.2206 18.7749 59.4822 17.433 60.0054 16.3558C60.5286 15.2786 61.2241 14.4723 62.092 13.9368C62.9661 13.4013 63.9232 13.1335 64.9635 13.1335C65.7575 13.1335 66.4223 13.2689 66.9578 13.5398C67.4933 13.8045 67.9242 14.1368 68.2504 14.5369C68.5828 14.9309 68.8383 15.3187 69.0168 15.7003H69.1645V13.3182H73.07V27.6385C73.07 28.8449 72.7746 29.8544 72.1837 30.6669C71.5927 31.4794 70.7741 32.0888 69.7277 32.495C68.6874 32.9074 67.4902 33.1136 66.1361 33.1136ZM66.2192 24.3423C66.8532 24.3423 67.3887 24.1854 67.8257 23.8714C68.2689 23.5514 68.6074 23.0959 68.8413 22.505C69.0814 21.9079 69.2014 21.1939 69.2014 20.3629C69.2014 19.532 69.0845 18.8118 68.8506 18.2024C68.6167 17.5869 68.2781 17.1098 67.8349 16.7713C67.3918 16.4328 66.8532 16.2635 66.2192 16.2635C65.5729 16.2635 65.0281 16.4389 64.5849 16.7898C64.1418 17.1345 63.8063 17.6146 63.5785 18.2301C63.3508 18.8456 63.2369 19.5566 63.2369 20.3629C63.2369 21.1816 63.3508 21.8894 63.5785 22.4865C63.8124 23.0774 64.1479 23.536 64.5849 23.8622C65.0281 24.1823 65.5729 24.3423 66.2192 24.3423ZM82.3477 27.777C80.9135 27.777 79.6732 27.4723 78.6268 26.8629C77.5865 26.2474 76.7833 25.3918 76.217 24.2962C75.6507 23.1944 75.3676 21.9171 75.3676 20.4645C75.3676 18.9995 75.6507 17.7192 76.217 16.6236C76.7833 15.5218 77.5865 14.6662 78.6268 14.0568C79.6732 13.4413 80.9135 13.1335 82.3477 13.1335C83.7819 13.1335 85.0191 13.4413 86.0593 14.0568C87.1057 14.6662 87.9121 15.5218 88.4783 16.6236C89.0446 17.7192 89.3278 18.9995 89.3278 20.4645C89.3278 21.9171 89.0446 23.1944 88.4783 24.2962C87.9121 25.3918 87.1057 26.2474 86.0593 26.8629C85.0191 27.4723 83.7819 27.777 82.3477 27.777ZM82.3661 24.7301C83.0186 24.7301 83.5633 24.5455 84.0004 24.1761C84.4374 23.8007 84.7667 23.2898 84.9883 22.6435C85.216 21.9972 85.3299 21.2616 85.3299 20.4368C85.3299 19.612 85.216 18.8764 84.9883 18.2301C84.7667 17.5838 84.4374 17.0729 84.0004 16.6974C83.5633 16.322 83.0186 16.1342 82.3661 16.1342C81.7075 16.1342 81.1535 16.322 80.7042 16.6974C80.261 17.0729 79.9256 17.5838 79.6978 18.2301C79.4762 18.8764 79.3654 19.612 79.3654 20.4368C79.3654 21.2616 79.4762 21.9972 79.6978 22.6435C79.9256 23.2898 80.261 23.8007 80.7042 24.1761C81.1535 24.5455 81.7075 24.7301 82.3661 24.7301Z" fill="white"/>
</svg>
