<svg width="22" height="15" viewBox="0 0 22 15" fill="none" xmlns="http://www.w3.org/2000/svg">
<path d="M20.8554 2.40654C20.7392 1.96877 20.51 1.56922 20.1908 1.24791C19.8716 0.926585 19.4736 0.694772 19.0366 0.57568C17.4329 0.142822 11 0.142822 11 0.142822C11 0.142822 4.56714 0.142822 2.96257 0.57568C2.52578 0.694982 2.12797 0.926879 1.80892 1.24818C1.48988 1.56948 1.26079 1.96891 1.14457 2.40654C0.714287 4.02139 0.714287 7.38997 0.714287 7.38997C0.714287 7.38997 0.714287 10.7585 1.14457 12.3734C1.26079 12.8112 1.48998 13.2107 1.80919 13.532C2.12841 13.8533 2.52644 14.0852 2.96343 14.2043C4.56714 14.6371 11 14.6371 11 14.6371C11 14.6371 17.4329 14.6371 19.0374 14.2043C19.4745 14.0852 19.8725 13.8535 20.1918 13.5321C20.511 13.2108 20.7402 12.8112 20.8563 12.3734C21.2857 10.7585 21.2857 7.38997 21.2857 7.38997C21.2857 7.38997 21.2857 4.02139 20.8554 2.40654ZM8.89572 10.4483V4.33168L14.2726 7.38997L8.89572 10.4483Z" fill="white"/>
</svg>
